<svg width="50" height="50" viewBox="0 0 50 50" fill="none" xmlns="http://www.w3.org/2000/svg">
<g clip-path="url(#clip0_49_31)">
<rect width="50" height="50" rx="9" fill="#197CFF"/>
<path d="M35.4002 40.08H30.8002V20.48C30.8002 19.36 30.1735 18.8 28.9202 18.8C27.6935 18.8 27.0802 19.36 27.0802 20.48V33.16C27.0802 35.5333 26.5469 37.3333 25.4802 38.56C24.3869 39.7867 22.8269 40.4 20.8002 40.4C18.7469 40.4 17.1735 39.7867 16.0802 38.56C14.9602 37.3067 14.4002 35.5067 14.4002 33.16L14.4002 14.92H19.0002V32.88C19.0002 34.0267 19.5602 34.6 20.6802 34.6C21.2402 34.6 21.6802 34.44 22.0002 34.12C22.3202 33.8 22.4802 33.3867 22.4802 32.88V19.44C22.4802 17.36 23.0269 15.7733 24.1202 14.68C25.1869 13.56 26.7469 13 28.8002 13C30.8802 13 32.5069 13.56 33.6802 14.68C34.8269 15.8 35.4002 17.3867 35.4002 19.44V40.08Z" fill="white"/>
</g>
<defs>
<clipPath id="clip0_49_31">
<rect width="50" height="50" rx="9" fill="white"/>
</clipPath>
</defs>
</svg>
