<svg width="49" height="49" viewBox="0 0 49 49" fill="none" xmlns="http://www.w3.org/2000/svg">
<g clip-path="url(#clip0_18_24)">
<path d="M24.5 0C18.0037 0 11.7677 2.58284 7.17773 7.17582C2.58398 11.7688 0 18.0048 0 24.5C0 30.9952 2.58398 37.2312 7.17773 41.8242C11.7677 46.4172 18.0037 49 24.5 49C30.9963 49 37.2323 46.4172 41.8223 41.8242C46.416 37.2312 49 30.9952 49 24.5C49 18.0048 46.416 11.7688 41.8223 7.17582C37.2323 2.58284 30.9963 0 24.5 0Z" fill="#B9B9B9"/>
<path d="M11.0901 24.2411C18.2334 21.1296 22.9956 19.0781 25.3767 18.087C32.1831 15.2569 33.5956 14.7654 34.5182 14.7488C34.7211 14.7455 35.1728 14.7956 35.4676 15.0341C35.7126 15.2351 35.7815 15.5069 35.816 15.6975C35.8466 15.8882 35.8887 16.3227 35.8542 16.6618C35.4867 20.5359 33.8904 29.937 33.0788 34.2762C32.7381 36.1122 32.0606 36.7278 31.406 36.7879C29.9819 36.9188 28.9024 35.8477 27.5242 34.9446C25.369 33.5308 24.1517 32.6511 22.0577 31.2719C19.6383 29.6778 21.2078 28.8016 22.586 27.3699C22.9458 26.9951 29.2163 21.2931 29.3349 20.7759C29.3503 20.7112 29.3656 20.4701 29.2201 20.343C29.0785 20.2155 28.8679 20.2591 28.7148 20.2936C28.4966 20.3426 25.0551 22.6195 18.3788 27.1241C17.4027 27.7956 16.5184 28.1229 15.7221 28.1056C14.8493 28.0869 13.1649 27.611 11.9131 27.2045C10.3819 26.7057 9.16072 26.4419 9.26791 25.5948C9.3215 25.1538 9.93017 24.7024 11.0901 24.2411Z" fill="white"/>
</g>
<defs>
<clipPath id="clip0_18_24">
<rect width="49" height="49" fill="white"/>
</clipPath>
</defs>
</svg>
